<svg width="56" height="56" viewBox="0 0 56 56" fill="none" xmlns="http://www.w3.org/2000/svg">
<path d="M47 56H9.40169V47.9216L28.6025 28.6275C32.8873 24.183 35.0296 20.5228 35.0296 17.6471C35.0296 15.5032 34.3334 13.7777 32.9408 12.4706C31.6019 11.1634 29.8611 10.5098 27.7188 10.5098C23.4341 10.5098 20.3009 12.6536 18.3192 16.9412L9 11.6078C10.7139 7.89542 13.2044 5.04576 16.4715 3.05883C19.7921 1.01961 23.4877 0 27.5581 0C32.6463 0 37.0112 1.56863 40.6533 4.70589C44.2953 7.79085 46.1163 11.9738 46.1163 17.2549C46.1163 22.9542 43.0366 28.8105 36.8774 34.8235L25.871 45.5686H47V56Z" fill="#B1B1B1"/>
</svg>
