<svg width="56" height="56" viewBox="0 0 56 56" fill="none" xmlns="http://www.w3.org/2000/svg">
<path d="M45.7799 8.94118L35.086 22.2745C39.0587 23.3726 42.2153 25.3072 44.5554 28.0784C46.95 30.8497 48.1472 34.1438 48.1472 37.9608C48.1472 43.6078 46.1608 48.0262 42.188 51.2157C38.3241 54.4052 33.5077 56 27.7391 56C23.222 56 19.222 55.0066 15.7391 53.0196C12.2561 50.9804 9.72545 48.1046 8.14722 44.3922L17.7799 39.0588C19.1404 43.2941 22.4602 45.4118 27.7391 45.4118C30.6234 45.4118 32.8547 44.7581 34.4329 43.451C36.0656 42.0915 36.8819 40.2615 36.8819 37.9608C36.8819 35.7125 36.0656 33.9085 34.4329 32.549C32.8547 31.1895 30.6234 30.5098 27.7391 30.5098H25.2901L20.9635 24.2353L32.2288 10.1176H9.8615V0H45.7799V8.94118Z" fill="#B1B1B1"/>
</svg>
