<svg width="70" height="70" viewBox="0 0 70 70" fill="none" xmlns="http://www.w3.org/2000/svg">
<path fill-rule="evenodd" clip-rule="evenodd" d="M15.0181 55.8805C14.9537 56.2327 15.0631 56.5943 15.3117 56.8517C20.5832 62.3115 26.8158 65.0001 34.9963 65.0001C43.1688 65.0001 49.3951 62.3011 54.6639 56.8523C54.9158 56.5919 55.0247 56.2251 54.9557 55.8693C54.9557 55.8693 53.3687 47.6715 52.5578 43.4832C52.1958 41.6139 50.9014 40.0604 49.128 39.3672C46.0501 38.1642 40.9446 36.1688 40.9446 36.1688C40.4323 35.9685 39.8504 36.1736 39.5768 36.6509C39.5768 36.6509 37.9979 39.4238 34.9094 39.4238C31.8546 39.4238 30.4187 36.686 30.4187 36.686C30.1564 36.1875 29.5626 35.9643 29.0369 36.1666C29.0369 36.1666 23.8674 38.1572 20.7421 39.3606C18.937 40.0558 17.6237 41.6401 17.2756 43.5427C16.5066 47.7456 15.0181 55.8805 15.0181 55.8805ZM40.9382 38.5507C40.0219 39.6888 37.9977 41.6447 34.9094 41.6447C31.828 41.6447 29.891 39.7098 29.0105 38.5567L21.5402 41.4332C20.457 41.8503 19.6691 42.8008 19.4602 43.9425L17.3067 55.7124C22.0645 60.4558 27.6867 62.7792 34.9963 62.7792C42.2959 62.7792 47.9104 60.4476 52.6643 55.717L50.3775 43.9053C50.1602 42.7836 49.3835 41.8515 48.3195 41.4358L40.9382 38.5507Z" fill="#E31E24"/>
<path fill-rule="evenodd" clip-rule="evenodd" d="M21.6628 52.7492V60.5223C21.6628 61.1352 22.1603 61.6327 22.7734 61.6327C23.3862 61.6327 23.8837 61.1352 23.8837 60.5223V52.7492C23.8837 52.1362 23.3862 51.6387 22.7734 51.6387C22.1603 51.6387 21.6628 52.1362 21.6628 52.7492Z" fill="#E31E24"/>
<path fill-rule="evenodd" clip-rule="evenodd" d="M46.0925 52.7492V60.5223C46.0925 61.1352 46.5902 61.6327 47.2031 61.6327C47.8159 61.6327 48.3134 61.1352 48.3134 60.5223V52.7492C48.3134 52.1362 47.8159 51.6387 47.2031 51.6387C46.5902 51.6387 46.0925 52.1362 46.0925 52.7492Z" fill="#E31E24"/>
<path fill-rule="evenodd" clip-rule="evenodd" d="M37.1909 40.3357C37.095 39.8076 36.635 39.4238 36.0984 39.4238H33.8775C33.3408 39.4238 32.8811 39.8076 32.7849 40.3357L30.5641 52.5506C30.5087 52.8548 30.5829 53.1682 30.7684 53.4154L34.0996 57.8572C34.3094 58.1368 34.6384 58.3013 34.988 58.3013C35.3374 58.3013 35.6666 58.1368 35.8763 57.8572L39.2077 53.4154C39.3932 53.1682 39.4671 52.8548 39.4118 52.5506L37.1909 40.3357ZM34.8043 41.6447L32.8359 52.4708L34.988 55.3403L37.1401 52.4708L35.1717 41.6447H34.8043Z" fill="#E31E24"/>
<path fill-rule="evenodd" clip-rule="evenodd" d="M29.7355 33.4521C29.9462 33.7171 30.2662 33.8716 30.6048 33.8716H39.3716C39.71 33.8716 40.0302 33.7171 40.2408 33.4521C40.2408 33.4521 43.9886 28.6863 43.9886 23.9945C43.9886 19.0271 39.9556 14.9941 34.9882 14.9941C30.0206 14.9941 25.9878 19.0271 25.9878 23.9945C25.9878 28.6863 29.7355 33.4521 29.7355 33.4521ZM38.8167 31.6507C39.6352 30.5142 41.7677 27.241 41.7677 23.9945C41.7677 20.2528 38.7299 17.215 34.9882 17.215C31.2464 17.215 28.2087 20.2528 28.2087 23.9945C28.2087 27.241 30.341 30.5142 31.1595 31.6507H38.8167Z" fill="#E31E24"/>
<path fill-rule="evenodd" clip-rule="evenodd" d="M36.0983 28.9332V32.7613C36.0983 33.3742 35.6008 33.8717 34.988 33.8717C34.3751 33.8717 33.8774 33.3742 33.8774 32.7613V28.378C33.8774 28.0284 34.0421 27.6994 34.3216 27.4895L37.8283 24.8597C38.3186 24.4919 39.0152 24.5914 39.3829 25.0817C39.7507 25.5721 39.6512 26.2686 39.1609 26.6362L36.0983 28.9332Z" fill="#E31E24"/>
<path fill-rule="evenodd" clip-rule="evenodd" d="M35.6543 27.4895L32.1476 24.8597C31.6573 24.4919 30.9607 24.5914 30.5929 25.0817C30.2253 25.5721 30.3249 26.2686 30.8152 26.6362L34.3217 29.2662C34.812 29.634 35.5088 29.5345 35.8764 29.0442C36.2441 28.5539 36.1446 27.8573 35.6543 27.4895Z" fill="#E31E24"/>
<path fill-rule="evenodd" clip-rule="evenodd" d="M48.3135 24.988H52.7554C53.3682 24.988 53.8657 24.4903 53.8657 23.8774C53.8657 23.2646 53.3682 22.7671 52.7554 22.7671H48.3135C47.7006 22.7671 47.2031 23.2646 47.2031 23.8774C47.2031 24.4903 47.7006 24.988 48.3135 24.988Z" fill="#E31E24"/>
<path fill-rule="evenodd" clip-rule="evenodd" d="M47.0835 18.1763L50.9302 15.9554C51.4609 15.649 51.643 14.9692 51.3365 14.4385C51.0301 13.9078 50.3503 13.7256 49.8196 14.0322L45.973 16.253C45.4423 16.5595 45.26 17.2391 45.5666 17.7699C45.873 18.3006 46.5526 18.4827 47.0835 18.1763Z" fill="#E31E24"/>
<path fill-rule="evenodd" clip-rule="evenodd" d="M42.6123 12.8927L44.8332 9.04605C45.1398 8.51537 44.9575 7.83557 44.4268 7.52916C43.8961 7.22274 43.2164 7.40483 42.9099 7.93551L40.6891 11.7822C40.3827 12.3131 40.5647 12.9927 41.0954 13.2991C41.6263 13.6057 42.3059 13.4234 42.6123 12.8927Z" fill="#E31E24"/>
<path fill-rule="evenodd" clip-rule="evenodd" d="M36.0983 10.5523V6.11033C36.0983 5.4975 35.6008 5 34.988 5C34.3751 5 33.8774 5.4975 33.8774 6.11033V10.5523C33.8774 11.1651 34.3751 11.6626 34.988 11.6626C35.6008 11.6626 36.0983 11.1651 36.0983 10.5523Z" fill="#E31E24"/>
<path fill-rule="evenodd" clip-rule="evenodd" d="M29.2872 11.7822L27.0664 7.93551C26.7597 7.40483 26.0802 7.22274 25.5495 7.52916C25.0186 7.83557 24.8365 8.51537 25.1429 9.04605L27.3638 12.8927C27.6702 13.4234 28.35 13.6057 28.8807 13.2991C29.4116 12.9927 29.5936 12.3131 29.2872 11.7822Z" fill="#E31E24"/>
<path fill-rule="evenodd" clip-rule="evenodd" d="M24.0032 16.253L20.1565 14.0322C19.6257 13.7256 18.9461 13.9078 18.6395 14.4385C18.333 14.9692 18.5153 15.649 19.046 15.9554L22.8927 18.1763C23.4234 18.4827 24.1032 18.3006 24.4096 17.7699C24.716 17.2391 24.5339 16.5595 24.0032 16.253Z" fill="#E31E24"/>
<path fill-rule="evenodd" clip-rule="evenodd" d="M17.2209 24.988H21.6626C22.2755 24.988 22.7732 24.4903 22.7732 23.8774C22.7732 23.2646 22.2755 22.7671 21.6626 22.7671H17.2209C16.6081 22.7671 16.1104 23.2646 16.1104 23.8774C16.1104 24.4903 16.6081 24.988 17.2209 24.988Z" fill="#E31E24"/>
<path fill-rule="evenodd" clip-rule="evenodd" d="M20.1565 33.7228L24.0032 31.5019C24.5339 31.1955 24.716 30.5157 24.4096 29.985C24.1032 29.4541 23.4234 29.2721 22.8927 29.5785L19.046 31.7993C18.5153 32.1059 18.333 32.7855 18.6395 33.3162C18.9461 33.8471 19.6257 34.0292 20.1565 33.7228Z" fill="#E31E24"/>
<path fill-rule="evenodd" clip-rule="evenodd" d="M50.9302 31.7993L47.0835 29.5785C46.5526 29.2721 45.873 29.4541 45.5666 29.985C45.26 30.5157 45.4423 31.1955 45.973 31.5019L49.8196 33.7228C50.3503 34.0292 51.0301 33.8471 51.3365 33.3162C51.643 32.7855 51.4609 32.1059 50.9302 31.7993Z" fill="#E31E24"/>
</svg>
