<svg width="70" height="70" viewBox="0 0 70 70" fill="none" xmlns="http://www.w3.org/2000/svg">
<g clip-path="url(#clip0_4001_11818)">
<path d="M56.2195 13.8759C50.7476 8.40395 43.2397 5.03174 34.9682 5.03174C26.6967 5.03174 19.1888 8.40395 13.7805 13.8122C8.37222 19.2205 5 26.7285 5 34.9999C5 43.0805 8.18134 50.3976 13.3987 55.8059C18.6161 61.2141 25.8059 64.65 33.8865 64.9681C34.5228 64.9681 35.0954 64.4591 35.0954 63.8228C35.0954 63.1866 34.5864 62.6139 33.9502 62.6139C26.5695 62.3594 19.8887 59.1781 15.1166 54.2152C10.3446 49.1887 7.41782 42.4443 7.41782 34.9999C7.41782 27.3647 10.5355 20.493 15.4984 15.4665C20.4613 10.5036 27.333 7.44955 34.9682 7.44955C42.6034 7.44955 49.4751 10.5673 54.438 15.5301C59.4008 20.493 62.5186 27.4283 62.5186 35.0636C62.5186 37.4814 62.2004 39.8356 61.6278 42.1261C61.0551 44.3531 60.1644 46.58 58.9555 48.616C58.6373 49.1887 58.8282 49.8886 59.4008 50.2703C59.9735 50.5885 60.6734 50.3976 61.0551 49.8249C62.3277 47.598 63.2821 45.1802 63.982 42.6988C64.6182 40.2173 65 37.6086 65 35.0636C65 26.7921 61.6278 19.2841 56.2195 13.8759Z" fill="#E31E24"/>
<path d="M34.9046 11.5854C28.4783 11.5854 22.6247 14.1941 18.3617 18.4571C14.1623 22.6565 11.49 28.5102 11.49 35.0001C11.49 40.2175 13.2079 45.1167 16.1984 49.1252C19.1888 53.0701 23.4518 56.1242 28.4783 57.5239C29.1146 57.7148 29.7509 57.3331 29.9417 56.6968C30.1326 56.0605 29.7509 55.4243 29.1146 55.2334C24.5971 53.9608 20.7795 51.2249 18.1072 47.7254C15.6257 44.4805 14.1623 40.5356 13.9078 36.2726H16.8983C17.5345 36.2726 18.1072 35.7636 18.1072 35.0637C18.1072 34.4274 17.5982 33.8548 16.8983 33.8548H13.9078C14.2259 28.5102 16.4529 23.7382 20.016 20.2387C23.5791 16.6756 28.3511 14.4487 33.6321 14.1305V17.121C33.6321 17.7572 34.1411 18.3299 34.841 18.3299C35.4773 18.3299 36.0499 17.8209 36.0499 17.121V14.1305C41.3945 14.4487 46.1665 16.6756 49.666 20.2387C53.2291 23.8018 55.4561 28.5738 55.7742 33.8548H52.7837C52.1475 33.8548 51.5748 34.3638 51.5748 35.0637C51.5748 35.7 52.0838 36.2726 52.7837 36.2726H55.7742C55.7106 36.9089 55.7106 37.5452 55.5833 38.1814C55.4561 39.1994 55.2015 40.2175 54.8834 41.2355C54.6925 41.8718 55.0743 42.508 55.6469 42.6989C56.4741 42.8898 57.1103 42.508 57.3012 41.8718C57.6194 40.7265 57.9375 39.5812 58.0648 38.4996C58.2556 37.3543 58.3193 36.209 58.3193 35.0001C58.3193 28.5738 55.7106 22.7201 51.4476 18.4571C47.2482 14.2578 41.3945 11.5854 34.9046 11.5854Z" fill="#E31E24"/>
<path d="M34.9682 20.4932C34.332 20.4932 33.7593 21.0022 33.7593 21.7021V31.437C33.2503 31.6278 32.7413 31.8823 32.3595 32.2641L32.2959 32.3277C31.9141 32.7095 31.596 33.2185 31.4051 33.7911H24.0881C23.4518 33.7911 22.8792 34.3002 22.8792 35.0001C22.8792 35.6363 23.3882 36.209 24.0881 36.209H31.3415C31.5324 36.7816 31.8505 37.2906 32.2323 37.6724C32.9322 38.3723 33.8866 38.754 34.9046 38.754C35.9226 38.754 36.877 38.3086 37.5769 37.6724C38.2768 36.9725 38.6586 36.0181 38.6586 35.0001C38.6586 33.982 38.2132 33.0276 37.5769 32.3277C37.1952 31.946 36.6861 31.6278 36.1135 31.437V21.7021C36.1771 21.0658 35.6045 20.4932 34.9682 20.4932ZM36.368 35.0001C36.368 35.3818 36.1771 35.7636 35.9226 36.0181C35.6681 36.2726 35.35 36.3998 34.9682 36.3998C34.5865 36.3998 34.2047 36.2726 34.0138 36.0181C33.7593 35.7636 33.6321 35.4454 33.6321 35.0637C33.6321 34.6819 33.7593 34.3638 34.0138 34.1093C34.0138 34.1093 34.0138 34.1093 34.0775 34.0457C34.332 33.7911 34.6501 33.6639 35.0319 33.6639C35.4136 33.6639 35.7954 33.7911 35.9863 34.0457C36.2408 34.3002 36.368 34.6183 36.368 35.0001Z" fill="#E31E24"/>
<path d="M47.7571 52.3063C47.1845 51.8609 46.421 51.4791 45.4029 51.2883C44.8303 51.161 44.4485 51.0338 44.194 50.9065C43.9395 50.7793 43.8123 50.5884 43.8123 50.3339C43.8123 50.0794 43.9395 49.8885 44.194 49.6976C44.4485 49.5067 44.703 49.4431 45.0212 49.4431C45.4029 49.4431 45.7847 49.5067 46.2301 49.6976C46.6755 49.8885 47.0572 49.9521 47.2481 49.9521C47.5662 49.9521 47.7571 49.8249 48.0116 49.5703C48.2025 49.3158 48.3298 49.0613 48.3298 48.8068C48.3298 48.2978 48.1389 47.9161 47.6935 47.7252C47.1845 47.4707 46.6118 47.2798 45.912 47.2162V46.4526C45.912 46.1345 45.8483 45.9436 45.6574 45.8164C45.4666 45.6891 45.2121 45.6255 44.9576 45.6255C44.703 45.6255 44.4485 45.6891 44.2577 45.88C44.0668 46.0709 44.0032 46.2618 44.0032 46.5799V47.3434C43.176 47.5343 42.5397 47.916 42.0307 48.5523C41.5217 49.125 41.2672 49.8249 41.2672 50.5884C41.2672 51.4155 41.5853 52.0518 42.158 52.4972C42.7306 52.9426 43.5578 53.3243 44.6394 53.5152C45.5938 53.7061 46.1028 54.0242 46.1028 54.5332C46.0392 54.8514 45.912 55.1059 45.6574 55.2968C45.4029 55.4876 45.0848 55.5513 44.7667 55.5513C44.6394 55.5513 44.4485 55.5513 44.3213 55.5513C44.194 55.5513 44.0668 55.4876 43.9395 55.4876C43.8123 55.424 43.685 55.424 43.6214 55.3604C43.5578 55.3604 43.4305 55.2967 43.3033 55.2331C43.176 55.1695 43.1124 55.1695 43.0488 55.1059C42.667 54.9786 42.3489 54.8514 42.0944 54.8514C41.7762 54.8514 41.5853 54.9786 41.3308 55.2331C41.1399 55.4876 41.0127 55.8058 41.0127 56.1239C41.0127 56.6329 41.2672 57.0147 41.7762 57.2692C42.2852 57.5873 42.9851 57.7782 43.8759 57.8418V58.7326C43.8759 58.9871 43.9395 59.178 44.194 59.3052C44.3849 59.4325 44.6394 59.4961 44.8939 59.4961C45.2121 59.4961 45.4029 59.4325 45.5938 59.3052C45.7847 59.178 45.8483 58.9235 45.8483 58.6053V57.7146C46.6755 57.5237 47.3117 57.1419 47.8208 56.5693C48.3298 55.9966 48.5843 55.2968 48.5843 54.406C48.5843 53.4516 48.3298 52.7517 47.7571 52.3063Z" fill="#E31E24"/>
<path d="M44.8304 40.5356C41.4582 40.5356 38.4041 41.8718 36.2408 44.0987C34.0139 46.3257 32.6777 49.3798 32.6777 52.6883C32.6777 56.0606 34.0139 59.1146 36.2408 61.278C38.4041 63.4413 41.4582 64.8411 44.8304 64.8411C48.2027 64.8411 51.2567 63.5049 53.42 61.278C55.647 59.051 56.9831 55.9969 56.9831 52.6883C56.9831 49.3161 55.647 46.2621 53.42 44.0987C51.1931 41.8718 48.139 40.5356 44.8304 40.5356ZM51.7658 59.56C49.9842 61.3416 47.5664 62.4232 44.8304 62.4232C42.0945 62.4232 39.6767 61.3416 37.8951 59.56C36.1136 57.7785 35.0319 55.3607 35.0319 52.6247C35.0319 49.9524 36.1136 47.471 37.8951 45.6894C39.6767 43.9079 42.0945 42.8262 44.8304 42.8262C47.5664 42.8262 49.9842 43.9079 51.7658 45.6894C53.5473 47.471 54.629 49.8888 54.629 52.6247C54.629 55.3607 53.5473 57.7785 51.7658 59.56Z" fill="#E31E24"/>
</g>
<defs>
<clipPath id="clip0_4001_11818">
<rect width="60" height="60" fill="white" transform="translate(5 5)"/>
</clipPath>
</defs>
</svg>
