<svg width="70" height="70" viewBox="0 0 70 70" fill="none" xmlns="http://www.w3.org/2000/svg">
<g clip-path="url(#clip0_4001_11806)">
<g clip-path="url(#clip1_4001_11806)">
<path d="M56.4028 18.9409C59.9404 18.9409 62.8147 16.0667 62.8147 12.5291C62.8147 8.99148 59.9404 6.11719 56.4028 6.11719C52.8653 6.11719 49.991 8.99148 49.991 12.5291C49.991 16.0667 52.8653 18.9409 56.4028 18.9409ZM56.4028 8.32818C58.717 8.32818 60.6037 10.2149 60.6037 12.5291C60.6037 14.8432 58.717 16.7299 56.4028 16.7299C54.0887 16.7299 52.202 14.8432 52.202 12.5291C52.202 10.2149 54.0887 8.32818 56.4028 8.32818Z" fill="url(#paint0_linear_4001_11806)"/>
<path d="M39.4079 19.8842L30.3133 28.1091L29.2963 26.9741C28.8835 26.5171 28.1908 26.4877 27.7338 26.9004C27.2769 27.3131 27.2474 28.0059 27.6601 28.4628L28.6772 29.5978L27.2621 30.8802L26.2451 29.7452C25.8324 29.2882 25.1396 29.2588 24.6826 29.6715C24.2257 30.0842 24.1962 30.777 24.6089 31.2339L25.626 32.3689L21.3514 36.216C20.8945 36.6287 20.865 37.3215 21.2777 37.7785C21.6904 38.2354 22.3832 38.2649 22.8402 37.8522L27.1147 34.005L31.8168 39.2082C32.2295 39.6652 32.9223 39.6947 33.3792 39.2819C33.8362 38.8692 33.8656 38.1764 33.4529 37.7195L28.7509 32.5163L30.1659 31.2339L32.6422 33.9756C35.3839 36.9972 40.1743 37.1446 43.3434 34.2851C46.5125 31.4255 46.8957 26.7088 44.2278 23.5544C44.2131 23.5397 44.2131 23.5397 44.1983 23.5249L40.9703 19.9579C40.5576 19.5009 39.8648 19.4715 39.4079 19.8842ZM42.5475 24.9989C44.4342 27.2394 44.1246 30.5854 41.8547 32.6342C39.5995 34.6683 36.1945 34.6094 34.2784 32.4868L31.802 29.7452L40.0859 22.272L42.5475 24.9989Z" fill="url(#paint1_linear_4001_11806)"/>
<path d="M67.7969 0H40.3216C40.0563 0 39.8057 0.0884379 39.5994 0.265317L1.48188 33.0764C1.24604 33.2681 1.11339 33.5629 1.09865 33.8724C1.08391 34.1819 1.20183 34.4767 1.42292 34.6978L28.8982 61.6867C29.1193 61.893 29.3993 61.9962 29.6794 61.9962C29.93 61.9962 30.1953 61.9078 30.4017 61.7456L68.5192 29.0377C68.755 28.8313 68.9024 28.5218 68.9024 28.1975V1.1055C68.9024 0.501158 68.4012 0 67.7969 0ZM66.7061 27.6816L29.7384 59.3872L3.84028 33.9608L40.7491 2.19626H66.7061V27.6816Z" fill="url(#paint2_linear_4001_11806)"/>
<path d="M67.0746 35.3612L29.7383 67.3912L2.98532 40.6676C2.55786 40.2402 1.85035 40.2402 1.42289 40.6676C0.99543 41.0951 0.99543 41.8026 1.42289 42.2301L28.8981 69.6758C29.1192 69.8969 29.3993 70.0001 29.6794 70.0001C29.9299 70.0001 30.1953 69.9117 30.4016 69.7495L68.5191 37.0416C68.9761 36.6436 69.035 35.9361 68.637 35.4792C68.2391 35.0222 67.5315 34.9633 67.0746 35.3612Z" fill="url(#paint3_linear_4001_11806)"/>
</g>
</g>
<defs>
<linearGradient id="paint0_linear_4001_11806" x1="56.4028" y1="6.11719" x2="56.4028" y2="18.9409" gradientUnits="userSpaceOnUse">
<stop stop-color="#E31E24"/>
<stop offset="1" stop-color="#E85122"/>
</linearGradient>
<linearGradient id="paint1_linear_4001_11806" x1="33.4938" y1="19.5938" x2="33.4938" y2="39.5724" gradientUnits="userSpaceOnUse">
<stop stop-color="#E31E24"/>
<stop offset="1" stop-color="#E85122"/>
</linearGradient>
<linearGradient id="paint2_linear_4001_11806" x1="34.9999" y1="0" x2="34.9999" y2="61.9962" gradientUnits="userSpaceOnUse">
<stop stop-color="#E31E24"/>
<stop offset="1" stop-color="#E85122"/>
</linearGradient>
<linearGradient id="paint3_linear_4001_11806" x1="35.0022" y1="35.0962" x2="35.0022" y2="70.0001" gradientUnits="userSpaceOnUse">
<stop stop-color="#E31E24"/>
<stop offset="1" stop-color="#E85122"/>
</linearGradient>
<clipPath id="clip0_4001_11806">
<rect width="70" height="70" fill="white"/>
</clipPath>
<clipPath id="clip1_4001_11806">
<rect width="70" height="70" fill="white"/>
</clipPath>
</defs>
</svg>
