<svg width="70" height="70" viewBox="0 0 70 70" fill="none" xmlns="http://www.w3.org/2000/svg">
<g clip-path="url(#clip0_4001_11854)">
<path d="M34.9999 42.7422C31.2645 42.7422 28.2258 45.7818 28.2258 49.5163C28.2258 53.2508 31.2645 56.2904 34.9999 56.2904C38.7354 56.2904 41.7741 53.2508 41.7741 49.5163C41.7741 45.7818 38.7354 42.7422 34.9999 42.7422ZM34.9999 54.3549C32.3319 54.3549 30.1613 52.1843 30.1613 49.5163C30.1613 46.8483 32.3319 44.6776 34.9999 44.6776C37.668 44.6776 39.8386 46.8483 39.8386 49.5163C39.8386 52.1843 37.668 54.3549 34.9999 54.3549Z" fill="#E31E24"/>
<path d="M14.6777 35.9683H8.87134V37.9037H14.6777V35.9683Z" fill="#E31E24"/>
<path d="M14.6777 39.8389H8.87134V41.7743H14.6777V39.8389Z" fill="#E31E24"/>
<path d="M61.1286 35.9683H55.3223V37.9037H61.1286V35.9683Z" fill="#E31E24"/>
<path d="M61.1286 39.8389H55.3223V41.7743H61.1286V39.8389Z" fill="#E31E24"/>
<path d="M59.1931 22.4199H46.5894C47.1023 21.1986 47.413 19.8932 47.5184 18.549H60.1609C62.8289 18.549 64.9995 16.3784 64.9995 13.7103C64.9995 11.0423 62.8289 8.87167 60.1609 8.87167H44.0578C43.9446 8.75458 43.842 8.63071 43.724 8.51651C41.2379 6.12332 37.964 4.87785 34.5092 5.00946C31.2161 5.13623 28.2054 6.60815 26.0116 8.87167H13.5347L6.53506 11.4962C5.61669 11.8397 5.00024 12.73 5.00024 13.7103C5.00024 14.6906 5.61669 15.5809 6.5341 15.9245L13.5347 18.549H22.4765C22.581 19.897 22.9013 21.1986 23.4132 22.4199H10.8066V32.0972H5.00024V45.6454H18.5485V32.0972H12.7421V24.3554H24.3548V24.2257C25.3303 25.7847 26.629 27.1482 28.2258 28.1711V29.194H26.2903V31.1295H28.2258V33.0649H26.2903V35.0004H28.3032C28.4493 36.0146 28.8151 36.9581 29.3599 37.7768L26.6706 35.9497L21.4323 41.1871L23.5545 44.31C23.4336 44.5741 23.3223 44.8412 23.2216 45.1074L19.5162 45.8128V53.2198L23.2216 53.9253C23.3223 54.1914 23.4336 54.4585 23.5545 54.7227L21.4323 57.8456L26.6706 63.0829L29.7935 60.9617C30.0586 61.0836 30.3248 61.1949 30.5899 61.2955L31.2964 65H38.7034L39.4098 61.2955C39.675 61.1949 39.9411 61.0836 40.2063 60.9617L43.3291 63.0829L48.5675 57.8456L46.4452 54.7227C46.5662 54.4585 46.6775 54.1914 46.7781 53.9253L50.4836 53.2198V45.8128L46.7781 45.1074C46.6775 44.8412 46.5662 44.5741 46.4452 44.31L48.5675 41.1871L43.3291 35.9497L40.6398 37.7768C41.1846 36.9591 41.5495 36.0155 41.6956 35.0014H43.7094V33.0659H41.774V31.1304H43.7094V29.195H41.774V28.1711C43.3669 27.1502 44.6675 25.7828 45.6449 24.2179V24.3554H57.2577V32.0972H51.4513V45.6454H64.9995V32.0972H59.1931V22.4199ZM12.7421 16.1848L7.21344 14.1119C7.04699 14.049 6.9357 13.8884 6.9357 13.7103C6.9357 13.5323 7.04699 13.3716 7.21441 13.3087L12.7421 11.2358V16.1848ZM16.613 34.0327V43.71H6.9357V34.0327H16.613ZM51.4513 16.6135H47.532C47.4826 15.9555 47.382 15.31 47.233 14.6781H51.4513V16.6135ZM57.2577 10.8071H60.1609C61.7615 10.8071 63.0641 12.1097 63.0641 13.7103C63.0641 15.3109 61.7615 16.6135 60.1609 16.6135H57.2577V10.8071ZM53.3868 10.8071H55.3222V16.6135H53.3868V10.8071ZM51.4513 10.8071V12.7426H46.6175C46.3368 12.0691 45.9885 11.4245 45.5917 10.8071H51.4513ZM22.4716 16.6135H14.6775V14.6781H22.7784C22.6236 15.308 22.5239 15.9545 22.4716 16.6135ZM23.3871 12.8384V12.7426H14.6775V10.8071H24.469C24.049 11.4487 23.6861 12.1271 23.3871 12.8384ZM43.093 38.4503L46.0668 41.4232L44.2069 44.159L44.4691 44.669C44.7372 45.1935 44.9598 45.7248 45.1291 46.2493L45.3052 46.7951L48.5481 47.4135V51.6192L45.3043 52.2376L45.1281 52.7834C44.9588 53.3079 44.7372 53.8392 44.4682 54.3637L44.2059 54.8737L46.0659 57.6095L43.092 60.5823L40.3563 58.7233L39.8453 58.9856C39.3169 59.2556 38.7856 59.4782 38.266 59.6456L37.7202 59.8227L37.1028 63.0646H32.897L32.2786 59.8217L31.7328 59.6446C31.2132 59.4772 30.6819 59.2556 30.1535 58.9846L29.6425 58.7224L26.9068 60.5814L23.9329 57.6085L25.7929 54.8727L25.5306 54.3627C25.2626 53.8382 25.04 53.3069 24.8706 52.7824L24.6945 52.2366L21.4517 51.6192V47.4135L24.6955 46.7951L24.8716 46.2493C25.041 45.7248 25.2626 45.1935 25.5316 44.669L25.7939 44.159L23.9339 41.4232L26.9077 38.4503L29.6445 40.3094L30.1554 40.0471C30.4854 39.8768 30.8203 39.7316 31.1541 39.601C32.2457 40.3597 33.5705 40.8068 34.9999 40.8068C36.4292 40.8068 37.754 40.3597 38.8476 39.601C39.1795 39.7316 39.5134 39.8768 39.8472 40.0471L40.3572 40.3094L43.093 38.4503ZM39.8385 31.1295V33.0649H30.1612V31.1295H39.8385ZM32.0967 19.5167H30.1612C29.0938 19.5167 28.2258 18.6486 28.2258 17.5812C28.2258 16.5138 29.0938 15.6458 30.1612 15.6458C31.2286 15.6458 32.0967 16.5138 32.0967 17.5812V19.5167ZM34.0321 29.194V21.4522H35.9676V29.194H34.0321ZM39.7408 35.0004C39.2908 37.2058 37.336 38.8713 34.9999 38.8713C32.6638 38.8713 30.709 37.2058 30.259 35.0004H39.7408ZM40.3214 26.7902L39.8385 27.0698V29.194H37.9031V21.4522H39.8385C41.9733 21.4522 43.7094 19.7161 43.7094 17.5812C43.7094 15.4464 41.9733 13.7103 39.8385 13.7103C37.7037 13.7103 35.9676 15.4464 35.9676 17.5812V19.5167H34.0321V17.5812C34.0321 15.4464 32.296 13.7103 30.1612 13.7103C28.0264 13.7103 26.2903 15.4464 26.2903 17.5812C26.2903 19.7161 28.0264 21.4522 30.1612 21.4522H32.0967V29.194H30.1612V27.0698L29.6783 26.7902C26.3077 24.8373 24.2687 21.2131 24.3577 17.3316C24.4845 11.8145 29.0706 7.15492 34.5818 6.94492C34.7231 6.93815 34.8625 6.93621 35.0028 6.93621C37.7724 6.93621 40.3795 7.98426 42.3817 9.91101C44.4856 11.9365 45.6449 14.6606 45.6449 17.5812C45.6449 21.3593 43.6049 24.8876 40.3214 26.7902ZM37.9031 19.5167V17.5812C37.9031 16.5138 38.7711 15.6458 39.8385 15.6458C40.9059 15.6458 41.774 16.5138 41.774 17.5812C41.774 18.6486 40.9059 19.5167 39.8385 19.5167H37.9031ZM63.0641 34.0327V43.71H53.3868V34.0327H63.0641Z" fill="#E31E24"/>
</g>
<defs>
<clipPath id="clip0_4001_11854">
<rect width="60" height="60" fill="white" transform="translate(5 5)"/>
</clipPath>
</defs>
</svg>
