<svg width="40" height="40" viewBox="0 0 40 40" fill="none" xmlns="http://www.w3.org/2000/svg">
<rect width="40" height="40" rx="20" fill="#0077FF"/>
<path d="M20.0001 30.88C18.2777 30.88 16.6355 30.4904 15.1194 29.723C11.4206 27.8714 9.12012 24.145 9.12012 20C9.12012 17.0373 10.2897 14.268 12.4137 12.2011C14.537 10.1356 17.344 9.04863 20.3051 9.12377C26.1361 9.28391 30.8801 14.2554 30.8801 20.2054V23.06C30.8801 25.1221 29.2022 26.8 27.1401 26.8C25.4449 26.8 24.0094 25.6661 23.5521 24.1171C22.5984 24.9409 21.3564 25.44 20.0001 25.44C17.0006 25.44 14.5601 22.9995 14.5601 20C14.5601 17.0005 17.0006 14.56 20.0001 14.56C22.9996 14.56 25.4401 17.0005 25.4401 20V23.06C25.4401 23.9974 26.2027 24.76 27.1401 24.76C28.0775 24.76 28.8401 23.9974 28.8401 23.06V20.2054C28.8401 15.3498 24.9862 11.2933 20.249 11.1634C17.8415 11.0998 15.5611 11.9852 13.8359 13.6638C12.1104 15.3427 11.1601 17.5928 11.1601 20C11.1601 23.3677 13.0288 26.3954 16.0367 27.9006C17.2689 28.5245 18.6007 28.84 20.0001 28.84C21.3996 28.84 22.7313 28.5245 23.9594 27.9026L24.8812 29.723C23.3648 30.4904 21.7226 30.88 20.0001 30.88ZM20.0001 16.6C18.1254 16.6 16.6001 18.1253 16.6001 20C16.6001 21.8748 18.1254 23.4 20.0001 23.4C21.8749 23.4 23.4001 21.8748 23.4001 20C23.4001 18.1253 21.8749 16.6 20.0001 16.6Z" fill="white"/>
</svg>
