<svg width="70" height="70" viewBox="0 0 70 70" fill="none" xmlns="http://www.w3.org/2000/svg">
<path d="M58.2881 45.3993C58.0092 45.3971 57.7425 45.2854 57.5453 45.0882C57.3481 44.891 57.2364 44.6242 57.2341 44.3454V23.3938C57.2341 23.1143 57.3452 22.8462 57.5428 22.6485C57.7405 22.4509 58.0086 22.3398 58.2881 22.3398C61.2918 22.4214 64.1451 23.6719 66.2407 25.8253C68.3364 27.9786 69.509 30.8648 69.509 33.8696C69.509 36.8744 68.3364 39.7606 66.2407 41.9139C64.1451 44.0673 61.2918 45.3178 58.2881 45.3993ZM59.342 24.4987V43.1979C61.6158 42.9065 63.7055 41.7964 65.2199 40.0755C66.7343 38.3546 67.5697 36.1407 67.5697 33.8483C67.5697 31.556 66.7343 29.3421 65.2199 27.6212C63.7055 25.9003 61.6158 24.7902 59.342 24.4987Z" fill="url(#paint0_linear_4001_11110)"/>
<path d="M12.3561 45.3992C10.8157 45.441 9.28245 45.1738 7.84702 44.6131C6.4116 44.0525 5.10307 43.2099 3.99871 42.1352C2.89436 41.0604 2.01658 39.7752 1.41721 38.3555C0.817837 36.9359 0.509033 35.4105 0.509033 33.8695C0.509033 32.3284 0.817837 30.803 1.41721 29.3834C2.01658 27.9637 2.89436 26.6785 3.99871 25.6037C5.10307 24.529 6.4116 23.6864 7.84702 23.1258C9.28245 22.5652 10.8157 22.2979 12.3561 22.3397C12.6356 22.3397 12.9037 22.4507 13.1014 22.6484C13.299 22.846 13.4101 23.1141 13.4101 23.3937V44.3453C13.4078 44.6241 13.2961 44.8909 13.0989 45.0881C12.9017 45.2852 12.635 45.397 12.3561 45.3992ZM11.3022 24.4986C9.02837 24.7901 6.93873 25.9001 5.42431 27.6211C3.90989 29.342 3.07451 31.5558 3.07451 33.8482C3.07451 36.1406 3.90989 38.3544 5.42431 40.0753C6.93873 41.7963 9.02837 42.9063 11.3022 43.1978V24.4986Z" fill="url(#paint1_linear_4001_11110)"/>
<path d="M38.6709 65.799H31.9732C31.4415 65.8238 30.9104 65.7404 30.412 65.554C29.9135 65.3676 29.458 65.082 29.073 64.7146C28.6881 64.3471 28.3816 63.9054 28.1723 63.4161C27.9629 62.9268 27.855 62.4001 27.855 61.8679C27.855 61.3358 27.9629 60.8091 28.1723 60.3198C28.3816 59.8305 28.6881 59.3888 29.073 59.0213C29.458 58.6539 29.9135 58.3683 30.412 58.1819C30.9104 57.9955 31.4415 57.9121 31.9732 57.9369H38.6709C39.6818 57.9839 40.6358 58.4186 41.3346 59.1507C42.0334 59.8827 42.4234 60.8559 42.4234 61.8679C42.4234 62.88 42.0334 63.8532 41.3346 64.5852C40.6358 65.3173 39.6818 65.752 38.6709 65.799ZM31.9732 60.0618C31.4885 60.0618 31.0237 60.2543 30.681 60.597C30.3383 60.9397 30.1457 61.4045 30.1457 61.8892C30.1457 62.3739 30.3383 62.8387 30.681 63.1814C31.0237 63.5241 31.4885 63.7166 31.9732 63.7166H38.6709C39.1555 63.7166 39.6203 63.5241 39.963 63.1814C40.3058 62.8387 40.4983 62.3739 40.4983 61.8892C40.4983 61.4045 40.3058 60.9397 39.963 60.597C39.6203 60.2543 39.1555 60.0618 38.6709 60.0618H31.9732Z" fill="url(#paint2_linear_4001_11110)"/>
<path d="M8.0637 25.3659C7.95046 25.3669 7.83804 25.3467 7.73221 25.3064C7.46782 25.2189 7.24879 25.0304 7.12297 24.7819C6.99715 24.5335 6.97478 24.2453 7.06074 23.9805C9.01899 18.0318 12.8047 12.8528 17.8784 9.1815C22.9521 5.51016 29.0551 3.53369 35.3178 3.53369C41.5805 3.53369 47.6834 5.51016 52.7572 9.1815C57.8309 12.8528 61.6166 18.0318 63.5748 23.9805C63.6383 24.2385 63.6019 24.5111 63.473 24.7434C63.344 24.9758 63.1321 25.1509 62.8795 25.2337C62.627 25.3165 62.3525 25.3007 62.111 25.1897C61.8696 25.0787 61.679 24.8805 61.5774 24.6349C59.7645 19.1001 56.2491 14.2795 51.5332 10.8617C46.8173 7.44391 41.142 5.6036 35.3178 5.6036C29.4936 5.6036 23.8183 7.44391 19.1024 10.8617C14.3864 14.2795 10.871 19.1001 9.05816 24.6349C8.99027 24.8458 8.85764 25.03 8.67911 25.1612C8.50059 25.2924 8.28525 25.364 8.0637 25.3659Z" fill="url(#paint3_linear_4001_11110)"/>
<path d="M41.6799 62.2205C41.4265 62.2124 41.1844 62.1131 40.9982 61.9409C40.8121 61.7687 40.6942 61.5351 40.6663 61.283C40.6384 61.031 40.7023 60.7773 40.8464 60.5686C40.9904 60.3598 41.2049 60.21 41.4504 60.1466C45.8448 59.1487 49.9276 57.089 53.3416 54.1477C56.7556 51.2064 59.3966 47.4732 61.0336 43.2748C61.1362 43.0145 61.338 42.8055 61.5946 42.6939C61.8512 42.5824 62.1417 42.5773 62.402 42.6799C62.6624 42.7824 62.8714 42.9842 62.9829 43.2409C63.0945 43.4975 63.0996 43.7879 62.997 44.0483C61.2297 48.5702 58.3797 52.5894 54.6972 55.7533C51.0146 58.9171 46.612 61.1291 41.8754 62.195C41.8112 62.2096 41.7457 62.2182 41.6799 62.2205Z" fill="url(#paint4_linear_4001_11110)"/>
<path d="M35.3221 52.9386C31.4187 52.9386 27.6029 51.7811 24.3573 49.6125C21.1117 47.4438 18.5821 44.3615 17.0883 40.7552C15.5945 37.1489 15.2036 33.1806 15.9652 29.3521C16.7267 25.5237 18.6064 22.0071 21.3665 19.2469C24.1267 16.4868 27.6433 14.6071 31.4718 13.8455C35.3002 13.084 39.2685 13.4749 42.8748 14.9686C46.4811 16.4624 49.5635 18.9921 51.7321 22.2376C53.9007 25.4832 55.0582 29.299 55.0582 33.2025C55.0515 38.4347 52.97 43.4508 49.2702 47.1506C45.5704 50.8504 40.5544 52.9319 35.3221 52.9386ZM35.3221 15.5402C31.8346 15.5386 28.4249 16.5709 25.524 18.5067C22.6231 20.4425 20.3612 23.1949 19.0243 26.4159C17.6873 29.637 17.3354 33.1821 18.0129 36.6031C18.6904 40.0242 20.3669 43.1676 22.8305 45.636C25.2942 48.1044 28.4344 49.787 31.8541 50.4711C35.2739 51.1552 38.8196 50.81 42.0433 49.4793C45.2669 48.1486 48.0236 45.892 49.965 42.9948C51.9064 40.0977 52.9453 36.69 52.9503 33.2025C52.9458 28.5285 51.0871 24.0474 47.7822 20.7424C44.4772 17.4374 39.996 15.5787 35.3221 15.5742V15.5402Z" fill="url(#paint5_linear_4001_11110)"/>
<path d="M24.8419 35.4894C24.428 35.4894 24.0234 35.3666 23.6793 35.1365C23.3353 34.9063 23.0673 34.5793 22.9093 34.1967C22.7513 33.8141 22.7104 33.3933 22.7918 32.9875C22.8731 32.5816 23.0731 32.2091 23.3664 31.917C23.6597 31.6249 24.033 31.4265 24.4392 31.3468C24.8453 31.267 25.266 31.3097 25.6479 31.4692C26.0298 31.6288 26.3558 31.8981 26.5845 32.2431C26.8133 32.588 26.9345 32.9931 26.9328 33.407C26.9305 33.9601 26.7092 34.4897 26.3174 34.88C25.9255 35.2703 25.3949 35.4894 24.8419 35.4894Z" fill="url(#paint6_linear_4001_11110)"/>
<path d="M45.2413 35.4894C44.8274 35.4894 44.4228 35.3666 44.0788 35.1365C43.7347 34.9063 43.4667 34.5793 43.3087 34.1967C43.1507 33.8141 43.1098 33.3933 43.1912 32.9875C43.2726 32.5816 43.4725 32.2091 43.7658 31.917C44.0591 31.6249 44.4324 31.4265 44.8386 31.3468C45.2448 31.267 45.6654 31.3097 46.0473 31.4692C46.4293 31.6288 46.7552 31.8981 46.984 32.2431C47.2127 32.588 47.3339 32.9931 47.3322 33.407C47.3299 33.9601 47.1087 34.4897 46.7168 34.88C46.3249 35.2703 45.7944 35.4894 45.2413 35.4894Z" fill="url(#paint7_linear_4001_11110)"/>
<path d="M35.3222 45.3571C33.7224 45.3548 32.1887 44.7183 31.0575 43.5871C29.9262 42.4558 29.2897 40.9222 29.2875 39.3223C29.2743 39.1765 29.2917 39.0296 29.3385 38.8909C29.3853 38.7522 29.4604 38.6248 29.5592 38.5167C29.6579 38.4087 29.7781 38.3224 29.9121 38.2634C30.046 38.2043 30.1908 38.1738 30.3372 38.1738C30.4835 38.1738 30.6283 38.2043 30.7623 38.2634C30.8962 38.3224 31.0164 38.4087 31.1151 38.5167C31.2139 38.6248 31.289 38.7522 31.3358 38.8909C31.3826 39.0296 31.4 39.1765 31.3869 39.3223C31.3869 40.366 31.8015 41.367 32.5395 42.105C33.2775 42.8431 34.2785 43.2577 35.3222 43.2577C36.3659 43.2577 37.3669 42.8431 38.1049 42.105C38.8429 41.367 39.2575 40.366 39.2575 39.3223C39.2575 39.0428 39.3686 38.7747 39.5662 38.5771C39.7639 38.3794 40.032 38.2684 40.3115 38.2684C40.591 38.2684 40.8591 38.3794 41.0567 38.5771C41.2544 38.7747 41.3654 39.0428 41.3654 39.3223C41.3609 40.9229 40.7225 42.4566 39.5899 43.5876C38.4573 44.7186 36.9228 45.3548 35.3222 45.3571Z" fill="url(#paint8_linear_4001_11110)"/>
<path d="M40.3112 29.6672C40.221 29.6796 40.1295 29.6796 40.0392 29.6672C37.2059 28.765 34.5283 27.4319 32.1006 25.7148C31.7606 25.4939 31.4376 25.2814 31.1316 25.0944C30.938 25.6649 30.938 26.2833 31.1316 26.8538C31.2595 27.0164 31.3366 27.213 31.3535 27.4192C31.3704 27.6253 31.3262 27.8318 31.2265 28.0131C31.1269 28.1943 30.9761 28.3422 30.7929 28.4383C30.6098 28.5345 30.4024 28.5746 30.1967 28.5537C25.6749 28.1457 22.751 25.2899 20.4901 22.5445C20.398 22.4368 20.328 22.312 20.2842 22.1772C20.2403 22.0425 20.2234 21.9004 20.2345 21.7591C20.2455 21.6178 20.2843 21.4801 20.3486 21.3538C20.4129 21.2275 20.5014 21.1151 20.6091 21.023C20.7168 20.931 20.8416 20.861 20.9763 20.8171C21.1111 20.7733 21.2532 20.7564 21.3944 20.7674C21.6798 20.7898 21.9445 20.9245 22.1305 21.142C24.5019 24.0149 26.5588 25.5449 28.9302 26.1483C28.9403 25.5486 29.0058 24.9511 29.1257 24.3634C29.1937 23.9724 29.2617 23.6154 29.2872 23.3009C29.2963 23.1263 29.3493 22.9568 29.4415 22.8082C29.5336 22.6596 29.6618 22.5367 29.8142 22.451C29.9648 22.3713 30.1326 22.3297 30.3029 22.3297C30.4733 22.3297 30.641 22.3713 30.7916 22.451C31.6353 22.8935 32.4526 23.3845 33.2395 23.9214C34.9706 25.1052 36.8055 26.1294 38.7218 26.9813V26.8878C38.3165 25.9567 38.0805 24.9608 38.0248 23.9469C38.013 23.7323 38.067 23.5191 38.1797 23.3361C38.2924 23.153 38.4584 23.0088 38.6554 22.9228C38.8525 22.8367 39.0711 22.813 39.282 22.8548C39.4928 22.8966 39.6859 23.0018 39.8353 23.1565C42.3087 25.7828 47.8844 26.3098 51.7347 24.2869C51.9816 24.155 52.2707 24.1266 52.5385 24.2079C52.8063 24.2892 53.0308 24.4735 53.1627 24.7204C53.2946 24.9672 53.323 25.2563 53.2417 25.5241C53.1604 25.7919 52.976 26.0165 52.7292 26.1483C50.8891 27.0694 48.8681 27.5722 46.8109 27.6207C44.7537 27.6692 42.7112 27.2622 40.8297 26.4288C41.0818 27.0724 41.2725 27.7383 41.3992 28.4177C41.4329 28.5927 41.4218 28.7733 41.3668 28.9427C41.3118 29.1122 41.2147 29.2649 41.0847 29.3867C40.9823 29.4846 40.8607 29.5601 40.7275 29.6084C40.5943 29.6567 40.4526 29.6767 40.3112 29.6672Z" fill="url(#paint9_linear_4001_11110)"/>
<defs>
<linearGradient id="paint0_linear_4001_11110" x1="57.2341" y1="33.8696" x2="69.509" y2="33.8696" gradientUnits="userSpaceOnUse">
<stop stop-color="#E31E24"/>
<stop offset="1" stop-color="#E85122"/>
</linearGradient>
<linearGradient id="paint1_linear_4001_11110" x1="0.509033" y1="33.8695" x2="13.4101" y2="33.8695" gradientUnits="userSpaceOnUse">
<stop stop-color="#E31E24"/>
<stop offset="1" stop-color="#E85122"/>
</linearGradient>
<linearGradient id="paint2_linear_4001_11110" x1="27.855" y1="61.8679" x2="42.4234" y2="61.8679" gradientUnits="userSpaceOnUse">
<stop stop-color="#E31E24"/>
<stop offset="1" stop-color="#E85122"/>
</linearGradient>
<linearGradient id="paint3_linear_4001_11110" x1="7.00928" y1="14.4498" x2="63.6053" y2="14.4498" gradientUnits="userSpaceOnUse">
<stop stop-color="#E31E24"/>
<stop offset="1" stop-color="#E85122"/>
</linearGradient>
<linearGradient id="paint4_linear_4001_11110" x1="40.6599" y1="52.4135" x2="63.0704" y2="52.4135" gradientUnits="userSpaceOnUse">
<stop stop-color="#E31E24"/>
<stop offset="1" stop-color="#E85122"/>
</linearGradient>
<linearGradient id="paint5_linear_4001_11110" x1="15.5859" y1="33.2025" x2="55.0582" y2="33.2025" gradientUnits="userSpaceOnUse">
<stop stop-color="#E31E24"/>
<stop offset="1" stop-color="#E85122"/>
</linearGradient>
<linearGradient id="paint6_linear_4001_11110" x1="22.751" y1="33.3985" x2="26.9328" y2="33.3985" gradientUnits="userSpaceOnUse">
<stop stop-color="#E31E24"/>
<stop offset="1" stop-color="#E85122"/>
</linearGradient>
<linearGradient id="paint7_linear_4001_11110" x1="43.1504" y1="33.3985" x2="47.3322" y2="33.3985" gradientUnits="userSpaceOnUse">
<stop stop-color="#E31E24"/>
<stop offset="1" stop-color="#E85122"/>
</linearGradient>
<linearGradient id="paint8_linear_4001_11110" x1="29.2832" y1="41.7655" x2="41.3654" y2="41.7655" gradientUnits="userSpaceOnUse">
<stop stop-color="#E31E24"/>
<stop offset="1" stop-color="#E85122"/>
</linearGradient>
<linearGradient id="paint9_linear_4001_11110" x1="20.2312" y1="25.2203" x2="53.2872" y2="25.2203" gradientUnits="userSpaceOnUse">
<stop stop-color="#E31E24"/>
<stop offset="1" stop-color="#E85122"/>
</linearGradient>
</defs>
</svg>
