<svg width="70" height="70" viewBox="0 0 70 70" fill="none" xmlns="http://www.w3.org/2000/svg">
<g clip-path="url(#clip0_4001_11059)">
<g clip-path="url(#clip1_4001_11059)">
<path d="M11.5243 20.607V23.0486H13.7601V20.8128H15.9959V17.4591C15.9959 15.6101 14.4911 14.1054 12.6421 14.1054C12.0251 14.1054 11.5242 13.6046 11.5242 12.9874V11.8695H12.6421C13.2592 11.8695 13.7601 12.3703 13.7601 12.9874V14.1054H15.9959V12.9874C15.9959 11.5319 15.058 10.3023 13.7601 9.83947V7.39795H11.5243V9.63371H9.28857V12.9874C9.28857 14.8364 10.7933 16.3411 12.6423 16.3411C13.2593 16.3411 13.7602 16.8419 13.7602 17.4591V18.577H12.6423C12.0253 18.577 11.5243 18.0762 11.5243 17.4591V16.3411H9.28857V17.4591C9.28857 18.9145 10.2265 20.1442 11.5243 20.607Z" fill="url(#paint0_linear_4001_11059)"/>
<path d="M12.6425 27.5204C19.4225 27.5204 24.9392 22.0037 24.9392 15.2237C24.9392 8.44363 19.4225 2.92676 12.6425 2.92676C5.86244 2.92676 0.345703 8.44363 0.345703 15.2235C0.345703 22.0034 5.86244 27.5204 12.6425 27.5204ZM12.6425 5.16252C18.1905 5.16252 22.7035 9.67547 22.7035 15.2235C22.7035 20.7716 18.1905 25.2845 12.6425 25.2845C7.09441 25.2845 2.58146 20.7717 2.58146 15.2235C2.58146 9.67533 7.09428 5.16252 12.6425 5.16252Z" fill="url(#paint1_linear_4001_11059)"/>
<path d="M10.4065 63.2925H19.3495V65.5282H10.4065V63.2925Z" fill="url(#paint2_linear_4001_11059)"/>
<path d="M14.8782 35.3453C15.4956 35.3453 15.9962 34.8448 15.9962 34.2273C15.9962 33.6099 15.4956 33.1094 14.8782 33.1094C14.2608 33.1094 13.7603 33.6099 13.7603 34.2273C13.7603 34.8448 14.2608 35.3453 14.8782 35.3453Z" fill="url(#paint3_linear_4001_11059)"/>
<path d="M23.5338 42.8004L21.8727 41.3047L12.5997 51.6082L8.96098 47.9695L7.38037 49.5502L12.6846 54.8546L23.5338 42.8004Z" fill="url(#paint4_linear_4001_11059)"/>
<path d="M66.301 7.39812H60.7116V0L55.2026 2.75447L51.7684 0.46498L48.4147 2.70074L45.061 0.46498L41.6269 2.75447L36.1181 0V7.39812H30.5286C28.6796 7.39812 27.1749 8.90285 27.1749 10.7518V29.9616C26.8239 29.8364 26.4505 29.756 26.0569 29.756H3.69917C1.85019 29.756 0.345459 31.2607 0.345459 33.1097V66.6463C0.345459 68.4953 1.85019 70 3.69917 70H26.0569H66.3009C68.1499 70 69.6546 68.4953 69.6546 66.6463V10.7518C69.6546 8.90285 68.15 7.39812 66.301 7.39812ZM38.3538 3.61744L41.7879 5.33449L45.0611 3.15232L48.4148 5.38809L51.7685 3.15232L55.0417 5.33449L58.4758 3.61744V11.8696L38.3538 11.872V3.61744ZM18.0306 31.9918L17.6807 34.09C17.4516 35.465 16.2733 36.4633 14.8781 36.4633C13.4829 36.4633 12.3048 35.465 12.0755 34.09L11.7257 31.9918H18.0306ZM3.69917 31.9918H9.45968L9.86997 34.4567C10.2792 36.9149 12.3852 38.6991 14.877 38.6991C17.3689 38.6991 19.4749 36.9149 19.8841 34.4567L20.2944 31.9918H26.0571C26.6741 31.9918 27.175 32.4926 27.175 33.1097V58.8212H2.58136V33.1096C2.58136 32.4926 3.08216 31.9918 3.69917 31.9918ZM3.69917 67.7642C3.08216 67.7642 2.58122 67.2634 2.58122 66.6463V61.0568H27.1747V66.6463C27.1747 67.2633 26.6739 67.7642 26.0568 67.7642H3.69917ZM67.4189 66.6463C67.4189 67.2633 66.9181 67.7642 66.3009 67.7642H29.205C29.3302 67.4133 29.4106 67.0399 29.4106 66.6463V33.1096V10.7518C29.4106 10.1348 29.9114 9.63389 30.5286 9.63389H36.1181V11.8696C36.1181 13.1027 37.1208 14.1054 38.3538 14.1054H58.4758C59.7089 14.1054 60.7116 13.1027 60.7116 11.8696V9.63402H66.301C66.9181 9.63402 67.419 10.1348 67.419 10.752V66.6463H67.4189Z" fill="url(#paint5_linear_4001_11059)"/>
<path d="M40.5896 7.39795H45.0611V9.63371H40.5896V7.39795Z" fill="url(#paint6_linear_4001_11059)"/>
<path d="M47.2969 7.39795H56.2399V9.63371H47.2969V7.39795Z" fill="url(#paint7_linear_4001_11059)"/>
<path d="M62.9474 16.3413H33.8822C32.6492 16.3413 31.6465 17.344 31.6465 18.5771V31.9918C31.6465 33.2248 32.6492 34.2275 33.8822 34.2275H62.9474C64.1805 34.2275 65.1832 33.2248 65.1832 31.9918V18.5771C65.1832 17.3452 64.1805 16.3413 62.9474 16.3413ZM33.8822 31.9918V18.5771H62.9474L62.9496 31.9918H33.8822Z" fill="url(#paint8_linear_4001_11059)"/>
<path d="M46.2304 27.109L43.6157 24.4943L42.0349 26.0749L46.1275 30.1675L55.8576 21.6547L54.3865 19.9712L46.2304 27.109Z" fill="url(#paint9_linear_4001_11059)"/>
<path d="M40.5896 38.6992H36.1181C34.885 38.6992 33.8823 39.7019 33.8823 40.935V43.1707C33.8823 44.4038 34.885 45.4065 36.1181 45.4065H40.5896C41.8227 45.4065 42.8254 44.4038 42.8254 43.1707V40.935C42.8254 39.7031 41.8227 38.6992 40.5896 38.6992ZM36.1181 43.1707V40.935H40.5896L40.5918 43.1707H36.1181Z" fill="url(#paint10_linear_4001_11059)"/>
<path d="M50.6506 38.6992H46.1791C44.9461 38.6992 43.9434 39.7019 43.9434 40.935V43.1707C43.9434 44.4038 44.9461 45.4065 46.1791 45.4065H50.6506C51.8837 45.4065 52.8864 44.4038 52.8864 43.1707V40.935C52.8864 39.7031 51.8837 38.6992 50.6506 38.6992ZM46.1791 43.1707V40.935H50.6506L50.6528 43.1707H46.1791Z" fill="url(#paint11_linear_4001_11059)"/>
<path d="M40.5896 47.6421H36.1181C34.885 47.6421 33.8823 48.6448 33.8823 49.8779V52.1136C33.8823 53.3467 34.885 54.3494 36.1181 54.3494H40.5896C41.8227 54.3494 42.8254 53.3467 42.8254 52.1136V49.8779C42.8254 48.6459 41.8227 47.6421 40.5896 47.6421ZM36.1181 52.1136V49.8779H40.5896L40.5918 52.1136H36.1181Z" fill="url(#paint12_linear_4001_11059)"/>
<path d="M50.6506 47.6421H46.1791C44.9461 47.6421 43.9434 48.6448 43.9434 49.8779V52.1136C43.9434 53.3467 44.9461 54.3494 46.1791 54.3494H50.6506C51.8837 54.3494 52.8864 53.3467 52.8864 52.1136V49.8779C52.8864 48.6459 51.8837 47.6421 50.6506 47.6421ZM46.1791 52.1136V49.8779H50.6506L50.6528 52.1136H46.1791Z" fill="url(#paint13_linear_4001_11059)"/>
<path d="M40.5896 56.5854H36.1181C34.885 56.5854 33.8823 57.5881 33.8823 58.8212V61.057C33.8823 62.29 34.885 63.2927 36.1181 63.2927H40.5896C41.8227 63.2927 42.8254 62.29 42.8254 61.057V58.8212C42.8254 57.5894 41.8227 56.5854 40.5896 56.5854ZM36.1181 61.057V58.8212H40.5896L40.5918 61.057H36.1181Z" fill="url(#paint14_linear_4001_11059)"/>
<path d="M50.6506 56.5854H46.1791C44.9461 56.5854 43.9434 57.5881 43.9434 58.8212V61.057C43.9434 62.29 44.9461 63.2927 46.1791 63.2927H50.6506C51.8837 63.2927 52.8864 62.29 52.8864 61.057V58.8212C52.8864 57.5894 51.8837 56.5854 50.6506 56.5854ZM46.1791 61.057V58.8212H50.6506L50.6528 61.057H46.1791Z" fill="url(#paint15_linear_4001_11059)"/>
<path d="M60.7117 38.6992H56.2402C55.0071 38.6992 54.0044 39.7019 54.0044 40.935V43.1707C54.0044 44.4038 55.0071 45.4065 56.2402 45.4065H60.7117C61.9447 45.4065 62.9474 44.4038 62.9474 43.1707V40.935C62.9474 39.7031 61.9447 38.6992 60.7117 38.6992ZM56.2402 43.1707V40.935H60.7117L60.7139 43.1707H56.2402Z" fill="url(#paint16_linear_4001_11059)"/>
<path d="M60.7117 47.6421H56.2402C55.0071 47.6421 54.0044 48.6448 54.0044 49.8779V61.0568C54.0044 62.2899 55.0071 63.2926 56.2402 63.2926H60.7117C61.9447 63.2926 62.9474 62.2899 62.9474 61.0568V49.8779C62.9474 48.6459 61.9447 47.6421 60.7117 47.6421ZM56.2402 61.0567V49.8777H60.7117L60.7139 61.0567H56.2402Z" fill="url(#paint17_linear_4001_11059)"/>
</g>
</g>
<defs>
<linearGradient id="paint0_linear_4001_11059" x1="12.6422" y1="7.39795" x2="12.6422" y2="23.0486" gradientUnits="userSpaceOnUse">
<stop stop-color="#E31E24"/>
<stop offset="1" stop-color="#E85122"/>
</linearGradient>
<linearGradient id="paint1_linear_4001_11059" x1="12.6425" y1="2.92676" x2="12.6425" y2="27.5204" gradientUnits="userSpaceOnUse">
<stop stop-color="#E31E24"/>
<stop offset="1" stop-color="#E85122"/>
</linearGradient>
<linearGradient id="paint2_linear_4001_11059" x1="14.878" y1="63.2925" x2="14.878" y2="65.5282" gradientUnits="userSpaceOnUse">
<stop stop-color="#E31E24"/>
<stop offset="1" stop-color="#E85122"/>
</linearGradient>
<linearGradient id="paint3_linear_4001_11059" x1="14.8782" y1="33.1094" x2="14.8782" y2="35.3453" gradientUnits="userSpaceOnUse">
<stop stop-color="#E31E24"/>
<stop offset="1" stop-color="#E85122"/>
</linearGradient>
<linearGradient id="paint4_linear_4001_11059" x1="15.4571" y1="41.3047" x2="15.4571" y2="54.8546" gradientUnits="userSpaceOnUse">
<stop stop-color="#E31E24"/>
<stop offset="1" stop-color="#E85122"/>
</linearGradient>
<linearGradient id="paint5_linear_4001_11059" x1="35" y1="0" x2="35" y2="70" gradientUnits="userSpaceOnUse">
<stop stop-color="#E31E24"/>
<stop offset="1" stop-color="#E85122"/>
</linearGradient>
<linearGradient id="paint6_linear_4001_11059" x1="42.8254" y1="7.39795" x2="42.8254" y2="9.63371" gradientUnits="userSpaceOnUse">
<stop stop-color="#E31E24"/>
<stop offset="1" stop-color="#E85122"/>
</linearGradient>
<linearGradient id="paint7_linear_4001_11059" x1="51.7684" y1="7.39795" x2="51.7684" y2="9.63371" gradientUnits="userSpaceOnUse">
<stop stop-color="#E31E24"/>
<stop offset="1" stop-color="#E85122"/>
</linearGradient>
<linearGradient id="paint8_linear_4001_11059" x1="48.4148" y1="16.3413" x2="48.4148" y2="34.2275" gradientUnits="userSpaceOnUse">
<stop stop-color="#E31E24"/>
<stop offset="1" stop-color="#E85122"/>
</linearGradient>
<linearGradient id="paint9_linear_4001_11059" x1="48.9463" y1="19.9712" x2="48.9463" y2="30.1675" gradientUnits="userSpaceOnUse">
<stop stop-color="#E31E24"/>
<stop offset="1" stop-color="#E85122"/>
</linearGradient>
<linearGradient id="paint10_linear_4001_11059" x1="38.3538" y1="38.6992" x2="38.3538" y2="45.4065" gradientUnits="userSpaceOnUse">
<stop stop-color="#E31E24"/>
<stop offset="1" stop-color="#E85122"/>
</linearGradient>
<linearGradient id="paint11_linear_4001_11059" x1="48.4149" y1="38.6992" x2="48.4149" y2="45.4065" gradientUnits="userSpaceOnUse">
<stop stop-color="#E31E24"/>
<stop offset="1" stop-color="#E85122"/>
</linearGradient>
<linearGradient id="paint12_linear_4001_11059" x1="38.3538" y1="47.6421" x2="38.3538" y2="54.3494" gradientUnits="userSpaceOnUse">
<stop stop-color="#E31E24"/>
<stop offset="1" stop-color="#E85122"/>
</linearGradient>
<linearGradient id="paint13_linear_4001_11059" x1="48.4149" y1="47.6421" x2="48.4149" y2="54.3494" gradientUnits="userSpaceOnUse">
<stop stop-color="#E31E24"/>
<stop offset="1" stop-color="#E85122"/>
</linearGradient>
<linearGradient id="paint14_linear_4001_11059" x1="38.3538" y1="56.5854" x2="38.3538" y2="63.2927" gradientUnits="userSpaceOnUse">
<stop stop-color="#E31E24"/>
<stop offset="1" stop-color="#E85122"/>
</linearGradient>
<linearGradient id="paint15_linear_4001_11059" x1="48.4149" y1="56.5854" x2="48.4149" y2="63.2927" gradientUnits="userSpaceOnUse">
<stop stop-color="#E31E24"/>
<stop offset="1" stop-color="#E85122"/>
</linearGradient>
<linearGradient id="paint16_linear_4001_11059" x1="58.4759" y1="38.6992" x2="58.4759" y2="45.4065" gradientUnits="userSpaceOnUse">
<stop stop-color="#E31E24"/>
<stop offset="1" stop-color="#E85122"/>
</linearGradient>
<linearGradient id="paint17_linear_4001_11059" x1="58.4759" y1="47.6421" x2="58.4759" y2="63.2926" gradientUnits="userSpaceOnUse">
<stop stop-color="#E31E24"/>
<stop offset="1" stop-color="#E85122"/>
</linearGradient>
<clipPath id="clip0_4001_11059">
<rect width="70" height="70" fill="white"/>
</clipPath>
<clipPath id="clip1_4001_11059">
<rect width="70" height="70" fill="white"/>
</clipPath>
</defs>
</svg>
