<svg width="24" height="24" viewBox="0 0 24 24" fill="none" xmlns="http://www.w3.org/2000/svg">
<path d="M4.48316 1.10692C4.10823 1.11826 3.77886 1.31612 3.50318 1.59179L3.04322 2.05101L8.02808 7.1267L8.75171 6.40307C9.18782 5.96697 9.18781 5.2469 8.75171 4.81079L5.53199 1.59179C5.22013 1.27993 4.85807 1.0954 4.48316 1.10692ZM2.51148 2.5813L1.9834 3.10864C1.1193 3.97273 1.125 5.10336 1.125 5.62525C1.125 7.78471 1.98832 11.5181 7.23413 16.7639C12.48 22.0097 16.2141 22.8738 18.3735 22.8738C18.8955 22.8738 20.0261 22.8794 20.8901 22.0154L21.3677 21.5378L16.3828 16.4621L15.8599 16.9858C15.55 17.2957 15.3213 17.3328 15.0989 17.3066C14.8765 17.2805 14.6466 17.1519 14.4785 17.0217C13.5618 16.312 12.0776 15.2961 10.3901 13.6086C8.70263 11.9211 7.68676 10.4362 6.97705 9.51951C6.84694 9.3514 6.71829 9.12445 6.69214 8.90207C6.66593 8.67969 6.70617 8.4481 7.01587 8.13817L7.49707 7.65698L2.51148 2.5813ZM18.3911 14.9197C18.1023 14.9197 17.8138 15.029 17.5957 15.2471L16.9131 15.9304L21.8987 21.0068L22.407 20.4985C22.6827 20.2229 22.8796 19.8905 22.8911 19.5156C22.9025 19.1407 22.7188 18.7787 22.407 18.4668L19.1873 15.2471C18.9692 15.029 18.68 14.9197 18.3911 14.9197Z" fill="#E31E24"/>
</svg>
