<svg width="94" height="93" viewBox="0 0 94 93" fill="none" xmlns="http://www.w3.org/2000/svg">
<g clip-path="url(#clip0_4001_15248)">
<path d="M51.9098 17.1083C42.4491 7.6526 27.056 7.6528 17.5956 17.1083C13.0128 21.6888 10.489 27.7787 10.489 34.2566C10.489 40.7344 13.0128 46.8243 17.5956 51.4048C22.3263 56.1332 28.5384 58.4964 34.7527 58.4964C40.9654 58.4964 47.1802 56.132 51.9098 51.4048C56.4927 46.8243 59.0165 40.7344 59.0165 34.2566C59.0165 27.7787 56.4927 21.6886 51.9098 17.1083ZM49.6185 49.1146C41.4217 57.3075 28.084 57.3072 19.887 49.1146C15.9161 45.1458 13.7293 39.869 13.7293 34.2564C13.7293 28.6436 15.9161 23.367 19.887 19.3982C23.9856 15.3019 29.3691 13.2537 34.7527 13.2537C40.1363 13.2537 45.5201 15.3019 49.6185 19.3982C53.5893 23.367 55.7761 28.6436 55.7761 34.2564C55.7761 39.869 53.5893 45.1458 49.6185 49.1146Z" fill="#E31E24"/>
<path d="M34.7527 15.0791C33.858 15.0791 33.1326 15.8042 33.1326 16.6984C33.1326 17.5927 33.858 18.3178 34.7527 18.3178C43.5459 18.3178 50.7 25.4679 50.7 34.2569C50.7 35.1511 51.4254 35.8762 52.3201 35.8762C53.2149 35.8762 53.9403 35.1511 53.9403 34.2569C53.9403 23.682 45.3328 15.0791 34.7527 15.0791Z" fill="#E31E24"/>
<path d="M90.0225 74.024L65.2488 49.2632C67.5247 44.6533 68.7293 39.5478 68.7293 34.2568C68.7293 25.1859 65.1951 16.6581 58.7777 10.2439C52.3604 3.82974 43.8282 0.297363 34.7527 0.297363C25.6772 0.297363 17.145 3.82974 10.7278 10.2437C4.3103 16.6579 0.776123 25.1857 0.776123 34.2566C0.776123 43.3275 4.3103 51.8553 10.7278 58.2693C17.145 64.6835 25.6772 68.2159 34.7527 68.2159C40.0466 68.2159 45.1545 67.0119 49.7667 64.7373L74.5402 89.4982C76.6079 91.5648 79.3571 92.703 82.2815 92.703C85.2055 92.703 87.9549 91.5648 90.0227 89.4982C94.2908 85.2318 94.2908 78.2903 90.0225 74.024ZM15.0238 53.9756C9.75404 48.7086 6.85172 41.7055 6.85172 34.2568C6.85172 26.8079 9.75404 19.8051 15.0238 14.5378C20.2936 9.2707 27.3 6.36986 34.7527 6.36986C42.2052 6.36986 49.2118 9.2707 54.4816 14.5378C59.7514 19.8049 62.6537 26.8079 62.6537 34.2566C62.6537 41.7053 59.7516 48.7084 54.4816 53.9754C49.2118 59.2425 42.2052 62.1434 34.7527 62.1434C27.3 62.1434 20.2936 59.2427 15.0238 53.9756ZM85.7264 85.2043C84.8062 86.1241 83.5827 86.6305 82.2813 86.6305C80.9799 86.6305 79.7565 86.1241 78.8363 85.2043L55.088 61.4681C56.3808 60.4987 57.6144 59.4322 58.7777 58.2695C59.9409 57.1068 61.008 55.8739 61.9779 54.5817L85.7262 78.3179C87.6258 80.2163 87.6258 83.3058 85.7264 85.2043Z" fill="#E31E24"/>
</g>
<defs>
<clipPath id="clip0_4001_15248">
<rect width="92.4528" height="92.4057" fill="white" transform="translate(0.77356 0.297363)"/>
</clipPath>
</defs>
</svg>
